<svg width="30" height="30" viewBox="0 0 30 30" fill="none" xmlns="http://www.w3.org/2000/svg">
<g clip-path="url(#clip0_4350_2134)">
<g clip-path="url(#clip1_4350_2134)">
<path fill-rule="evenodd" clip-rule="evenodd" d="M15 15.7578C18.3137 15.7578 21 13.0715 21 9.75781C21 6.4441 18.3137 3.75781 15 3.75781C11.6863 3.75781 9 6.4441 9 9.75781C9 13.0715 11.6863 15.7578 15 15.7578ZM15 16.7578C18.866 16.7578 22 13.6238 22 9.75781C22 5.89182 18.866 2.75781 15 2.75781C11.134 2.75781 8 5.89182 8 9.75781C8 13.6238 11.134 16.7578 15 16.7578Z" fill="#313235"/>
<path fill-rule="evenodd" clip-rule="evenodd" d="M8.47267 18.7313C10.0236 17.8339 12.136 17.2578 15 17.2578C17.864 17.2578 19.9764 17.8339 21.5273 18.7313C23.0817 19.6306 24.042 20.8353 24.6261 22.0396C25.2074 23.2383 25.4136 24.4301 25.4761 25.3164C25.5075 25.7608 25.503 26.1323 25.4905 26.395C25.4842 26.5264 25.4759 26.631 25.4689 26.7041C25.4654 26.7407 25.4623 26.7695 25.4599 26.7899L25.457 26.8142L25.456 26.8215L25.4557 26.8239L25.4556 26.8248C25.4555 26.8252 25.4555 26.8255 24.9601 26.7578C24.4647 26.6901 24.4646 26.6904 24.4646 26.6906L24.4649 26.6884L24.4666 26.6741C24.4682 26.6604 24.4706 26.6387 24.4734 26.6094C24.479 26.5507 24.4861 26.4619 24.4916 26.3472C24.5026 26.1177 24.5068 25.7861 24.4786 25.3868C24.4221 24.5855 24.2362 23.5273 23.7263 22.476C23.2191 21.4303 22.3887 20.385 21.0265 19.5968C19.6609 18.8067 17.7308 18.2578 15 18.2578C12.2692 18.2578 10.3391 18.8067 8.97348 19.5968C7.61127 20.385 6.7809 21.4303 6.27369 22.476C5.76377 23.5273 5.57795 24.5855 5.52139 25.3868C5.4932 25.7861 5.49739 26.1177 5.50837 26.3472C5.51385 26.4619 5.52101 26.5507 5.52659 26.6094C5.52938 26.6387 5.53178 26.6604 5.53337 26.6741L5.5351 26.6884L5.53538 26.6906C5.53535 26.6904 5.53532 26.6901 5.03992 26.7578C4.54452 26.8255 4.54448 26.8252 4.54443 26.8248L4.54431 26.8239L4.54398 26.8215L4.54304 26.8142L4.5401 26.7899C4.53772 26.7695 4.53457 26.7407 4.53109 26.7041C4.52413 26.631 4.5158 26.5264 4.50951 26.395C4.49695 26.1323 4.4925 25.7608 4.52387 25.3164C4.58643 24.4301 4.79256 23.2383 5.37394 22.0396C5.95804 20.8353 6.91833 19.6306 8.47267 18.7313Z" fill="#313235"/>
</g>
</g>
<defs>
<clipPath id="clip0_4350_2134">
<rect width="30" height="30" fill="white"/>
</clipPath>
<clipPath id="clip1_4350_2134">
<rect width="30" height="30" fill="white"/>
</clipPath>
</defs>
</svg>
