<svg width="30" height="30" viewBox="0 0 30 30" fill="none" xmlns="http://www.w3.org/2000/svg">
<g clip-path="url(#clip0_4350_2145)">
<g clip-path="url(#clip1_4350_2145)">
<path d="M3.09023 25.75L6.04856 8H8.75H15H21.25H23.9514L26.9098 25.75H3.09023Z" stroke="#313235"/>
<path d="M10.02 12.5C10.02 12.5 9.40514 3.75 15 3.75C20.5949 3.75 19.98 12.5 19.98 12.5" stroke="#313235"/>
<path d="M15 20.6193C14.358 20.6193 13.8111 20.4446 13.3594 20.0952C12.9077 19.7429 12.5625 19.233 12.3239 18.5653C12.0852 17.8949 11.9659 17.0852 11.9659 16.1364C11.9659 15.1932 12.0852 14.3878 12.3239 13.7202C12.5653 13.0497 12.9119 12.5384 13.3636 12.1861C13.8182 11.831 14.3636 11.6534 15 11.6534C15.6364 11.6534 16.1804 11.831 16.6321 12.1861C17.0866 12.5384 17.4332 13.0497 17.6719 13.7202C17.9134 14.3878 18.0341 15.1932 18.0341 16.1364C18.0341 17.0852 17.9148 17.8949 17.6761 18.5653C17.4375 19.233 17.0923 19.7429 16.6406 20.0952C16.1889 20.4446 15.642 20.6193 15 20.6193ZM15 19.6818C15.6364 19.6818 16.1307 19.375 16.483 18.7614C16.8352 18.1477 17.0114 17.2727 17.0114 16.1364C17.0114 15.3807 16.9304 14.7372 16.7685 14.206C16.6094 13.6747 16.3793 13.2699 16.0781 12.9915C15.7798 12.7131 15.4205 12.5739 15 12.5739C14.3693 12.5739 13.8764 12.8849 13.5213 13.5071C13.1662 14.1264 12.9886 15.0028 12.9886 16.1364C12.9886 16.892 13.0682 17.5341 13.2273 18.0625C13.3864 18.5909 13.6151 18.9929 13.9134 19.2685C14.2145 19.544 14.5767 19.6818 15 19.6818Z" fill="#313235"/>
</g>
</g>
<defs>
<clipPath id="clip0_4350_2145">
<rect width="30" height="30" fill="white"/>
</clipPath>
<clipPath id="clip1_4350_2145">
<rect width="30" height="30" fill="white"/>
</clipPath>
</defs>
</svg>
