<svg width="152" height="152" viewBox="0 0 152 152" fill="none" xmlns="http://www.w3.org/2000/svg">
<path d="M52.9928 37.1593C51.9761 38.2915 50.9339 39.4015 49.9485 40.5605C49.1555 41.4929 48.4186 42.4746 47.6799 43.4519C47.116 44.1977 46.5754 44.9619 46.0475 45.7339C45.3713 46.7219 44.9041 47.8222 44.3731 48.891C43.2469 51.1586 42.546 53.5681 41.9171 56.0027C41.3384 58.2438 41.0982 60.5494 40.709 62.8263C40.1106 66.3275 39.9382 70.6096 40.0663 74.182C40.185 77.4701 40.7481 79.8895 41.1119 82.9723C41.2846 84.4377 41.6576 85.8547 42.0431 87.267C42.5206 89.0162 43.0903 90.74 43.5931 92.4821C43.966 93.7743 44.4455 95.0227 45.0335 96.2278C45.8947 97.9935 46.7789 99.7479 47.6586 101.505C48.9421 104.064 53.349 111.642 54.8795 113.931C56.5756 116.468 58.425 118.883 60.4557 121.158C61.2499 122.048 62.0459 122.939 62.8653 123.805C63.4536 124.427 64.0855 125.008 64.6941 125.611C65.253 126.165 65.7791 126.755 66.3675 127.275C69.0105 129.607 71.6632 131.929 74.5643 133.943C74.7599 134.078 74.9158 134.271 75.1409 134.486C75.2672 134.393 75.4488 134.279 75.6091 134.14C76.7323 133.169 77.8609 132.205 78.9668 131.215C79.8276 130.445 80.6814 129.664 81.4976 128.847C82.4816 127.862 83.4197 126.833 84.3833 125.828C85.3327 124.837 86.2973 123.86 87.2402 122.863C88.009 122.05 88.7618 121.22 89.5104 120.387C90.2219 119.596 90.926 118.797 91.6214 117.991C92.9635 116.434 94.3207 114.89 95.6268 113.303C96.5662 112.161 97.4233 110.952 98.3343 109.786C99.4622 108.342 100.616 106.917 101.745 105.474C103.22 103.588 104.341 101.471 105.579 99.4327C106.357 98.1498 107.014 96.7929 107.738 95.4757C108.59 93.9254 109.285 92.3135 109.735 90.5987C110.215 88.774 110.665 86.9428 111.084 85.1023C111.519 83.1868 111.716 81.2654 111.691 79.3093C111.672 77.7641 111.707 76.2187 111.672 74.6746C111.634 73.04 111.59 71.4025 111.458 69.7737C111.377 68.7673 111.273 67.764 111.125 66.7679C110.938 65.5164 110.68 64.2759 110.305 63.0538C109.684 61.0295 108.933 59.0551 108.079 57.1261C106.886 54.432 105.34 51.9263 103.637 49.5295C102.171 47.4667 100.667 45.4262 99.0861 43.4512C96.9301 40.7577 94.6859 38.1359 92.4805 35.4835C91.7054 34.5547 90.9141 33.6257 90.0898 32.7414C88.6124 31.1565 87.1307 29.5762 85.6585 27.9866C84.8982 27.1653 84.1831 26.3004 83.3979 25.5056C82.3148 24.4096 81.1574 23.3877 80.0833 22.2839C79.1882 21.3633 78.3184 20.4195 77.3497 19.5738C77.0895 19.3463 76.8204 19.1284 76.5346 18.8886C76.2257 19.0606 75.938 19.2156 75.6561 19.38C74.6586 19.9618 73.6437 20.5156 72.6716 21.138C71.391 21.9575 70.1377 22.8214 68.8859 23.6857C68.1633 24.1846 67.4525 24.7029 66.7619 25.2454C65.5805 26.1733 64.4205 27.1285 63.2498 28.0707C62.2495 28.8757 61.2277 29.6546 60.2504 30.487C58.9238 31.6174 57.6304 32.7869 56.3247 33.9414C56.1275 34.1152 53.1365 36.9997 52.9928 37.1593ZM63.5641 76.9883L63.5954 76.9221C63.1477 76.5099 62.7242 76.1036 62.2845 75.7172C60.9349 74.5313 59.426 73.6096 57.7499 72.9575C57.3815 72.8144 57.1314 72.8547 56.8076 73.108C55.6674 74.0009 54.5113 74.8776 53.3179 75.6961C52.4975 76.2589 51.5937 76.6706 50.5481 76.6162C49.9739 76.5862 49.7099 76.3467 49.7264 75.7595C49.733 75.5291 49.7761 75.2714 49.8908 75.0793C50.1053 74.72 50.3525 74.3688 50.6418 74.0677C51.4728 73.2031 52.4302 72.4919 53.4448 71.8572C53.542 71.7959 53.6301 71.7209 53.7777 71.6111C51.986 71.3333 50.3449 71.7154 48.7183 72.1404C47.096 72.5653 45.5542 73.2193 44.0476 73.9693C44.323 73.6296 44.6041 73.3149 44.9185 73.0385C46.3368 71.7914 47.9596 70.8665 49.6523 70.0563C51.9033 68.9785 54.268 68.4172 56.7709 68.4544C57.8131 68.4698 58.8019 68.6891 59.7583 69.0918C61.8482 69.9723 63.6524 71.2776 65.2965 72.8227C65.4407 72.958 65.5907 73.0871 65.7912 73.2671L65.8664 73.1549C66.0053 73.7503 66.3368 74.186 66.759 74.4645C66.1365 75.4704 65.5407 76.4926 64.9324 77.5074L64.4668 78.2842C64.3731 78.078 64.2468 77.8821 64.086 77.7041C64.0153 77.6261 63.8871 77.3084 63.5641 76.9883ZM69.0348 65.2499C67.8548 64.5273 66.5865 64.0051 65.2629 63.6117C62.912 62.9133 60.5114 62.5189 58.0602 62.5099C56.8344 62.5055 55.5998 62.5399 54.3846 62.6879C52.7525 62.8865 51.2459 63.5315 49.7862 64.2718C49.1827 64.5779 48.5694 64.8715 47.9961 65.2284C47.0021 65.8474 46.0361 66.5117 45.0572 67.155C44.8852 67.2679 44.706 67.3714 44.5307 67.4789C44.5069 67.3381 44.5327 67.2724 44.5763 67.2218C45.5058 66.144 46.5926 65.2464 47.7609 64.4437C49.0468 63.5601 50.4036 62.7976 51.788 62.0835C53.1136 61.3987 54.501 60.8666 55.9487 60.5273C58.043 60.0364 60.1821 59.8643 62.3263 59.769C63.9867 59.695 65.6188 59.9291 67.237 60.267C69.9208 60.8276 72.0651 61.5885 74.1115 63.2679C74.4088 63.5123 74.7342 63.7325 74.9909 64.0148C76.0114 65.1366 76.8613 66.3846 77.4542 67.7804C78.3321 69.847 78.9918 71.9743 79.2897 74.2215C79.573 76.3625 79.4953 78.4753 79.1669 80.5911C78.6292 84.055 77.9941 87.5059 77.3364 90.9486C77.1641 91.8505 76.9381 92.742 76.7535 93.6418C76.7174 93.8194 76.7597 94.0124 76.7676 94.2517C76.9368 94.1891 77.0399 94.1812 77.0974 94.1253C78.2484 93.0143 79.6852 92.4818 81.1935 92.1165C81.9445 91.9341 82.7209 91.919 83.4897 92.0257C83.899 92.0825 84.0359 92.2533 83.994 92.6583C83.9696 92.892 83.8944 93.1258 83.807 93.3454C83.4832 94.157 83.0126 94.8664 82.3825 95.4819C81.8968 95.9566 81.4309 96.4457 80.8653 96.8311C80.1901 97.2914 79.4823 97.6823 78.6641 97.7784C77.9298 97.8644 77.2121 97.8263 76.921 96.9974C76.2283 97.2236 75.583 97.4906 74.9116 97.6413C73.6684 97.9213 72.4067 98.0502 71.1678 97.6077C70.723 97.449 70.3251 97.4979 69.8886 97.6445C69.3013 97.8414 68.6951 97.9966 68.0847 98.1047C67.771 98.1605 67.4223 98.1192 67.1068 98.0455C66.5882 97.9243 66.4152 97.5309 66.6346 97.0488C66.7169 96.867 66.8236 96.6851 66.9589 96.5407C67.5232 95.9387 68.0934 95.3417 68.6778 94.7597C69.4132 94.0276 70.2685 93.46 71.1939 93.0001C71.5571 92.8197 71.934 92.6701 72.3689 92.8415L72.7622 93.9459C73.1452 93.9322 73.3612 93.7684 73.4683 93.4541C73.6035 93.0555 73.7755 92.6652 73.8706 92.2569C74.2653 90.5584 74.6741 88.8617 75.0081 87.1507C75.4419 84.9302 75.7657 82.6898 75.8395 80.4245C75.8943 78.751 75.8745 77.074 75.4725 75.4342C75.1441 74.0939 74.6607 72.8045 74.1477 71.5239C73.553 70.0391 72.7165 68.7136 71.657 67.5246C71.0849 66.8843 69.7333 65.677 69.0348 65.2499ZM37.0715 65.911C37.1711 64.3913 37.4234 62.8927 37.7793 61.4118C38.014 60.4361 38.2059 59.4472 38.487 58.4847C39.1976 56.0522 40.055 53.6735 41.1956 51.4041C42.33 49.1485 43.7226 47.0623 45.2323 45.0441C46.517 43.3262 47.8633 41.6599 49.2507 40.0263C50.1304 38.9905 51.0421 37.9827 51.9373 36.9604C53.3948 35.3006 53.762 34.9762 55.3381 33.6168C56.311 32.779 57.2989 31.9592 58.2921 31.1454C60.3222 29.4825 62.3514 27.8186 64.3962 26.1744C65.5262 25.2657 66.6764 24.3817 67.8376 23.5136C68.5275 22.9976 69.236 22.5002 69.9716 22.0534C71.6484 21.036 73.3364 20.0361 75.04 19.0648C76.4889 18.2391 77.9696 17.4708 79.4268 16.6598C79.747 16.4818 79.9678 16.4912 80.2478 16.7514C81.8329 18.2256 83.4853 19.63 85.0189 21.1554C86.6703 22.7985 88.2215 24.5425 89.8049 26.2539C91.0392 27.5881 92.258 28.9366 93.4783 30.2842C96.6062 33.7398 97.4117 35.0101 100.79 39.4226C101.951 40.9384 103.077 42.4812 104.221 44.0105C104.705 44.6577 105.207 45.2916 105.678 45.9477C106.116 46.5576 106.531 47.1848 106.945 47.8123C107.589 48.7874 108.247 49.7549 108.856 50.7525C109.255 51.4065 109.563 52.1155 109.938 52.7853C110.781 54.2923 111.458 55.8767 112.112 57.469C112.473 58.3491 112.74 59.2716 112.996 60.1903C113.273 61.1789 113.522 62.1781 113.719 63.1852C114.079 65.0175 114.469 66.8442 114.477 68.7307C114.484 70.458 114.635 72.1856 114.615 73.9117C114.594 75.6545 114.48 77.3996 114.331 79.1375C114.229 80.323 113.963 81.4939 113.832 82.6784C113.689 83.9588 113.382 85.1956 113.054 86.4381C112.528 88.4273 111.813 90.3439 110.983 92.2181C110.45 93.4232 109.83 94.5904 109.245 95.7734C108.71 96.8563 108.078 97.8817 107.408 98.8867C106.941 99.5855 106.562 100.342 106.122 101.059C105.68 101.778 105.235 102.496 104.748 103.184C104.101 104.096 103.417 104.981 102.74 105.871C101.997 106.848 101.258 107.828 100.492 108.786C99.6582 109.831 98.8262 110.881 97.9382 111.88C96.6589 113.317 95.4287 114.795 94.2019 116.278C92.9518 117.789 91.6429 119.253 90.3328 120.714C87.8197 123.515 85.2566 126.271 82.5363 128.872C80.9988 130.343 79.4326 131.784 77.844 133.199C77.0645 133.893 76.2097 134.503 75.3836 135.143C75.1073 135.357 74.7997 135.537 74.788 136C74.5914 135.92 74.4582 135.88 74.3384 135.815C72.1059 134.6 70.0807 133.079 68.1386 131.455C66.281 129.902 64.4405 128.319 62.6933 126.644C60.7066 124.74 58.8156 122.733 56.9147 120.741C55.8641 119.64 54.8769 118.477 53.8625 117.34C51.3987 114.58 49.2802 111.565 47.3207 108.432C46.6487 107.358 46.0719 106.145 45.845 105.775C44.8542 104.161 43.9907 102.479 43.2194 100.749C42.9805 100.212 42.7331 99.6798 42.4945 99.1436C42.2109 98.5085 41.9055 97.8817 41.659 97.2324C41.2876 96.2556 40.9615 95.2613 40.6117 94.2765C40.0966 92.8256 39.5844 91.3717 39.2412 89.8703C38.4837 86.5607 37.4337 81.8887 37.0794 78.6385C36.928 77.2527 36.698 75.8738 36.7496 74.4715C36.8651 71.599 36.8782 68.8662 37.0715 65.911Z" fill="#0047BA"/>
<path d="M86.207 76.4092C87.2838 74.9107 88.513 73.595 90.0148 72.5548C91.8522 71.2819 93.8517 70.3913 96.0575 69.9964C97.4754 69.742 98.894 69.7871 100.316 69.9805C103.026 70.3486 105.294 71.629 107.337 73.3751C107.746 73.7239 108.122 74.1106 108.537 74.5021C107.28 75.7768 105.915 76.8112 104.545 77.8968C103.023 76.2626 101.477 74.7017 99.5866 73.4793C99.3457 73.7544 99.1548 73.9929 98.9431 74.2111C98.3889 74.7821 97.8392 75.3578 97.2637 75.9067C96.3712 76.7573 95.2767 77.2794 94.1568 77.7489C93.6487 77.962 93.1131 78.037 92.5626 77.9729C92.1584 77.9261 91.9895 77.7632 91.931 77.3594C91.8857 77.0474 91.9277 76.7542 92.0684 76.4628C92.5261 75.518 93.1588 74.7156 93.9637 74.0462C94.3392 73.7341 94.7113 73.4176 95.0818 73.099C95.1312 73.0569 95.1626 72.9938 95.2693 72.8493C91.8668 73.2428 88.918 74.5083 86.207 76.4092Z" fill="#E31E25"/>
<path d="M86.207 76.4092C87.2838 74.9107 88.513 73.595 90.0148 72.5548C91.8522 71.2819 93.8517 70.3913 96.0575 69.9964C97.4754 69.742 98.894 69.7871 100.316 69.9805C103.026 70.3486 105.294 71.629 107.337 73.3751C107.746 73.7239 108.122 74.1106 108.537 74.5021C107.28 75.7768 105.915 76.8112 104.545 77.8968C103.023 76.2626 101.477 74.7017 99.5866 73.4793C99.3457 73.7544 99.1548 73.9929 98.9431 74.2111C98.3889 74.7821 97.8392 75.3578 97.2637 75.9067C96.3712 76.7573 95.2767 77.2794 94.1568 77.7489C93.6487 77.962 93.1131 78.037 92.5626 77.9729C92.1584 77.9261 91.9895 77.7632 91.931 77.3594C91.8857 77.0474 91.9277 76.7542 92.0684 76.4628C92.5261 75.518 93.1588 74.7156 93.9637 74.0462C94.3392 73.7341 94.7113 73.4176 95.0818 73.099C95.1312 73.0569 95.1626 72.9938 95.2693 72.8493C91.8668 73.2428 88.918 74.5083 86.207 76.4092Z" fill="#E31E25" stroke="#FEFEFE" stroke-width="3.99987" stroke-miterlimit="10"/>
<path d="M82.5664 71.2592C82.8587 70.9224 83.1429 70.5787 83.4444 70.2502C84.392 69.2196 85.501 68.3775 86.6053 67.527C89.1644 65.5549 92.1027 64.5316 95.2487 64.0264C97.5584 63.6556 99.8617 63.7978 102.153 64.1852C103.827 64.4681 105.493 64.8092 107.099 65.3676C108.068 65.7048 109.004 66.1394 109.952 66.5387C110.114 66.6072 110.259 66.7192 110.462 66.8413C109.366 67.8146 108.305 68.7579 107.26 69.6864C106.335 69.319 105.464 68.919 104.558 68.6238C102.358 67.9076 100.118 67.3349 97.822 67.0187C95.7365 66.7318 93.6451 66.6272 91.5708 67.084C89.3701 67.5694 87.2752 68.3442 85.3666 69.5693C84.6072 70.0568 83.8723 70.5837 83.124 71.0896C82.9781 71.1884 82.8228 71.2732 82.672 71.3647C82.6368 71.3294 82.6016 71.2945 82.5664 71.2592Z" fill="#E31E25"/>
<path d="M82.5664 71.2592C82.8587 70.9224 83.1429 70.5787 83.4444 70.2502C84.392 69.2196 85.501 68.3775 86.6053 67.527C89.1644 65.5549 92.1027 64.5316 95.2487 64.0264C97.5584 63.6556 99.8617 63.7978 102.153 64.1852C103.827 64.4681 105.493 64.8092 107.099 65.3676C108.068 65.7048 109.004 66.1394 109.952 66.5387C111.05 67.0014 108.03 69.0027 107.26 69.6864C106.335 69.319 105.464 68.919 104.558 68.6238C102.358 67.9076 100.118 67.3349 97.822 67.0187C95.7365 66.7318 93.6451 66.6272 91.5708 67.084C89.3701 67.5694 87.2752 68.3442 85.3666 69.5693C84.6072 70.0568 83.8723 70.5837 83.124 71.0896C82.9781 71.1884 82.8228 71.2732 82.672 71.3647C82.6368 71.3294 82.6016 71.2945 82.5664 71.2592Z" fill="#E31E25" stroke="#FEFEFE" stroke-width="3.99987" stroke-miterlimit="10"/>
<path d="M64.6719 109.826C65.3137 109.001 65.8469 108.239 66.6788 107.75C67.9286 107.014 69.2491 106.459 70.6372 106.037C71.3044 105.833 71.9272 105.48 72.5649 105.184C73.3904 104.8 74.219 104.468 75.1649 104.575C75.6338 104.628 76.0517 104.758 76.3744 105.103C76.6816 105.432 76.9871 105.768 77.2497 106.132C77.5484 106.547 77.6309 106.617 78.089 106.418C78.6347 106.182 79.1604 105.901 79.6991 105.647C80.2851 105.371 80.8649 105.077 81.4675 104.842C81.9932 104.636 82.5254 104.698 83.0329 104.97C83.5573 105.251 84.0729 105.567 84.6281 105.767C85.2327 105.985 85.8785 106.089 86.5068 106.24C86.6265 106.269 86.7493 106.282 86.9367 106.313C86.8424 106.446 86.7896 106.551 86.7097 106.628C86.1515 107.167 85.6255 107.748 85.0172 108.224C83.9058 109.094 82.6229 109.424 81.2462 109.041C80.4472 108.818 79.7292 108.374 79.0718 107.854C78.9449 107.753 78.8353 107.628 78.7082 107.528C78.4338 107.311 78.3178 107.297 78.0383 107.526C77.5775 107.905 77.1404 108.312 76.6853 108.698C76.0324 109.251 75.2827 109.56 74.4243 109.634C73.8942 109.68 73.5657 109.427 73.3164 109.015C73.2046 108.831 73.134 108.622 73.0379 108.427C72.7642 107.876 72.3149 107.57 71.7052 107.571C71.2756 107.572 70.8249 107.584 70.4199 107.71C69.4405 108.012 68.4756 108.366 67.5182 108.735C66.6599 109.066 65.8202 109.445 64.9706 109.8C64.9256 109.819 64.8688 109.81 64.6719 109.826Z" fill="#E31E25"/>
<path d="M64.6719 109.826C65.3137 109.001 65.8469 108.239 66.6788 107.75C67.9286 107.014 69.2491 106.459 70.6372 106.037C71.3044 105.833 71.9272 105.48 72.5649 105.184C73.3904 104.8 74.219 104.468 75.1649 104.575C75.6338 104.628 76.0517 104.758 76.3744 105.103C76.6816 105.432 76.9871 105.768 77.2497 106.132C77.5484 106.547 77.6309 106.617 78.089 106.418C78.6347 106.182 79.1604 105.901 79.6991 105.647C80.2851 105.371 80.8649 105.077 81.4675 104.842C81.9932 104.636 82.5254 104.698 83.0329 104.97C83.5573 105.251 84.0729 105.567 84.6281 105.767C85.2327 105.985 85.8785 106.089 86.5068 106.24C86.6265 106.269 86.7493 106.282 86.9367 106.313C86.8424 106.446 86.7896 106.551 86.7097 106.628C86.1515 107.167 85.6255 107.748 85.0172 108.224C83.9058 109.094 82.6229 109.424 81.2462 109.041C80.4472 108.818 79.7292 108.374 79.0718 107.854C78.9449 107.753 78.8353 107.628 78.7082 107.528C78.4338 107.311 78.3178 107.297 78.0383 107.526C77.5775 107.905 77.1404 108.312 76.6853 108.698C76.0324 109.251 75.2827 109.56 74.4243 109.634C73.8942 109.68 73.5657 109.427 73.3164 109.015C73.2046 108.831 73.134 108.622 73.0379 108.427C72.7642 107.876 72.3149 107.57 71.7052 107.571C71.2756 107.572 70.8249 107.584 70.4199 107.71C69.4405 108.012 68.4756 108.366 67.5182 108.735C66.6599 109.066 65.8202 109.445 64.9706 109.8C64.9256 109.819 64.8688 109.81 64.6719 109.826Z" fill="#E31E25" stroke="#FEFEFE" stroke-width="3.99987" stroke-miterlimit="10"/>
<path d="M82.7884 113.356C82.7241 113.467 82.691 113.547 82.6382 113.611C81.9572 114.435 81.2663 115.257 80.3772 115.861C79.9831 116.129 79.5118 116.293 79.0605 116.465C78.7807 116.571 78.4972 116.472 78.2235 116.353C76.9145 115.782 75.5738 115.302 74.1701 115.024C73.5523 114.902 72.9325 114.815 72.2927 114.921C71.6377 115.031 70.9722 115.075 70.2344 115.157C70.4584 114.806 70.6491 114.453 70.8907 114.14C71.5403 113.298 72.3255 112.602 73.3033 112.174C73.6714 112.013 74.0984 111.968 74.5043 111.917C75.9527 111.737 77.3377 112.095 78.714 112.471C79.3214 112.637 79.9056 112.887 80.5126 113.053C81.1723 113.233 81.8432 113.383 82.5388 113.317C82.6027 113.31 82.6694 113.336 82.7884 113.356Z" fill="#E31E25"/>
<path d="M82.7884 113.356C82.7241 113.467 82.691 113.547 82.6382 113.611C81.9572 114.435 81.2663 115.257 80.3772 115.861C79.9831 116.129 79.5118 116.293 79.0605 116.465C78.7807 116.571 78.4972 116.472 78.2235 116.353C76.9145 115.782 75.5738 115.302 74.1701 115.024C73.5523 114.902 72.9325 114.815 72.2927 114.921C71.6377 115.031 70.9722 115.075 70.2344 115.157C70.4584 114.806 70.6491 114.453 70.8907 114.14C71.5403 113.298 72.3255 112.602 73.3033 112.174C73.6714 112.013 74.0984 111.968 74.5043 111.917C75.9527 111.737 77.3377 112.095 78.714 112.471C79.3214 112.637 79.9056 112.887 80.5126 113.053C81.1723 113.233 81.8432 113.383 82.5388 113.317C82.6027 113.31 82.6694 113.336 82.7884 113.356Z" fill="#E31E25" stroke="#FEFEFE" stroke-width="3.99987" stroke-miterlimit="10"/>
<path d="M86.207 76.4092C87.2838 74.9107 88.513 73.595 90.0148 72.5548C91.8522 71.2819 93.8517 70.3913 96.0575 69.9964C97.4754 69.742 98.894 69.7871 100.316 69.9805C103.026 70.3486 105.294 71.629 107.337 73.3751C107.746 73.7239 108.122 74.1106 108.537 74.5021C107.28 75.7768 105.915 76.8112 104.545 77.8968C103.023 76.2626 101.477 74.7017 99.5866 73.4793C99.3457 73.7544 99.1548 73.9929 98.9431 74.2111C98.3889 74.7821 97.8392 75.3578 97.2637 75.9067C96.3712 76.7573 95.2767 77.2794 94.1568 77.7489C93.6487 77.962 93.1131 78.037 92.5626 77.9729C92.1584 77.9261 91.9895 77.7632 91.931 77.3594C91.8857 77.0474 91.9277 76.7542 92.0684 76.4628C92.5261 75.518 93.1588 74.7156 93.9637 74.0462C94.3392 73.7341 94.7113 73.4176 95.0818 73.099C95.1312 73.0569 95.1626 72.9938 95.2693 72.8493C91.8668 73.2428 88.918 74.5083 86.207 76.4092Z" fill="#0047BA"/>
<path d="M82.5664 71.2592C82.8587 70.9224 83.1429 70.5787 83.4444 70.2502C84.392 69.2196 85.501 68.3775 86.6053 67.527C89.1644 65.5549 92.1027 64.5316 95.2487 64.0264C97.5584 63.6556 99.8617 63.7978 102.153 64.1852C103.827 64.4681 105.493 64.8092 107.099 65.3676C108.068 65.7048 109.004 66.1394 109.952 66.5387C110.114 66.6072 110.259 66.7192 110.462 66.8413C109.366 67.8146 108.305 68.7579 107.26 69.6864C106.335 69.319 105.464 68.919 104.558 68.6238C102.358 67.9076 100.118 67.3349 97.822 67.0187C95.7365 66.7318 93.6451 66.6272 91.5708 67.084C89.3701 67.5694 87.2752 68.3442 85.3666 69.5693C84.6072 70.0568 83.8723 70.5837 83.124 71.0896C82.9781 71.1884 82.8228 71.2732 82.672 71.3647C82.6368 71.3294 82.6016 71.2945 82.5664 71.2592Z" fill="#0047BA"/>
<path d="M64.6719 109.826C65.3137 109.001 65.8469 108.239 66.6788 107.75C67.9286 107.014 69.2491 106.459 70.6372 106.037C71.3044 105.833 71.9272 105.48 72.5649 105.184C73.3904 104.8 74.219 104.468 75.1649 104.575C75.6338 104.628 76.0517 104.758 76.3744 105.103C76.6816 105.432 76.9871 105.768 77.2497 106.132C77.5484 106.547 77.6309 106.617 78.089 106.418C78.6347 106.182 79.1604 105.901 79.6991 105.647C80.2851 105.371 80.8649 105.077 81.4675 104.842C81.9932 104.636 82.5254 104.698 83.0329 104.97C83.5573 105.251 84.0729 105.567 84.6281 105.767C85.2327 105.985 85.8785 106.089 86.5068 106.24C86.6265 106.269 86.7493 106.282 86.9367 106.313C86.8424 106.446 86.7896 106.551 86.7097 106.628C86.1515 107.167 85.6255 107.748 85.0172 108.224C83.9058 109.094 82.6229 109.424 81.2462 109.041C80.4472 108.818 79.7292 108.374 79.0718 107.854C78.9449 107.753 78.8353 107.628 78.7082 107.528C78.4338 107.311 78.3178 107.297 78.0383 107.526C77.5775 107.905 77.1404 108.312 76.6853 108.698C76.0324 109.251 75.2827 109.56 74.4243 109.634C73.8942 109.68 73.5657 109.427 73.3164 109.015C73.2046 108.831 73.134 108.622 73.0379 108.427C72.7642 107.876 72.3149 107.57 71.7052 107.571C71.2756 107.572 70.8249 107.584 70.4199 107.71C69.4405 108.012 68.4756 108.366 67.5182 108.735C66.6599 109.066 65.8202 109.445 64.9706 109.8C64.9256 109.819 64.8688 109.81 64.6719 109.826Z" fill="#0047BA"/>
<path d="M82.7884 113.356C82.7241 113.467 82.691 113.547 82.6382 113.611C81.9572 114.435 81.2663 115.257 80.3772 115.861C79.9831 116.129 79.5118 116.293 79.0605 116.465C78.7807 116.571 78.4972 116.472 78.2235 116.353C76.9145 115.782 75.5738 115.302 74.1701 115.024C73.5523 114.902 72.9325 114.815 72.2927 114.921C71.6377 115.031 70.9722 115.075 70.2344 115.157C70.4584 114.806 70.6491 114.453 70.8907 114.14C71.5403 113.298 72.3255 112.602 73.3033 112.174C73.6714 112.013 74.0984 111.968 74.5043 111.917C75.9527 111.737 77.3377 112.095 78.714 112.471C79.3214 112.637 79.9056 112.887 80.5126 113.053C81.1723 113.233 81.8432 113.383 82.5388 113.317C82.6027 113.31 82.6694 113.336 82.7884 113.356Z" fill="#0047BA"/>
</svg>
