<svg width="152" height="152" viewBox="0 0 152 152" fill="none" xmlns="http://www.w3.org/2000/svg">
<path d="M80.4204 100.208C80.2174 100.167 80.0159 100.12 79.8122 100.082C78.5294 99.839 77.2406 99.6236 75.9651 99.3487C74.8426 99.1065 73.7098 98.9382 72.5798 98.7452C71.1779 98.5057 69.7887 98.193 68.3853 97.9625C66.695 97.6845 65.0255 97.3119 63.3491 96.9668C61.5787 96.602 59.8231 96.1855 58.0706 95.7508C56.503 95.3622 54.9499 94.9028 53.3677 94.5879C51.721 94.26 50.0503 94.0426 48.3839 93.8244C47.198 93.6693 46.0028 93.5831 44.8103 93.4884C44.4588 93.4606 44.1016 93.5186 43.747 93.519C43.1318 93.5199 42.5163 93.4869 41.9018 93.5047C41.3377 93.5211 40.7735 93.5728 40.2116 93.6324C39.1828 93.7415 38.1561 93.8728 37.1276 93.986C35.5306 94.162 33.9902 94.5863 32.445 95.0068C30.7546 95.4665 29.1614 96.1891 27.5093 96.7487C26.131 97.2148 24.7474 97.6637 23.3657 98.1192C22.2942 98.4724 21.3256 98.209 20.4193 97.6134C20.2923 97.5302 20.1947 97.4027 20.0356 97.2489C20.5444 96.7904 20.9893 96.3455 21.4784 95.9563C23.417 94.414 25.4528 93.0151 27.6108 91.7879C28.6354 91.2054 29.5809 90.4861 30.5836 89.8631C32.3825 88.7463 34.1975 87.655 36.0054 86.5531C36.06 86.5199 36.1118 86.4833 36.2015 86.4246C36.0182 86.3018 35.8433 86.3529 35.6869 86.3777C34.4729 86.5704 33.2653 86.7806 32.0907 87.1669C30.3994 87.7234 28.7554 88.397 27.1447 89.1444C26.222 89.5727 25.2922 89.9746 24.3483 90.3509C22.056 91.265 19.7023 92.5355 17.1833 92.5732C16.1891 92.5877 15.2924 92.3121 14.562 91.6168C14.1786 91.2513 13.8295 90.8509 13.4241 90.4235C13.6317 90.262 13.789 90.1322 13.9538 90.0128C15.5666 88.8447 17.2761 87.8251 19.0407 86.9143C21.495 85.6476 23.9888 84.4565 26.4771 83.256C28.936 82.07 31.4104 80.9151 33.875 79.7407C34.3468 79.516 34.502 79.3651 34.692 79.0099C34.4802 79.0039 34.2962 78.9757 34.1183 78.9969C33.1208 79.1149 32.1395 79.3012 31.1819 79.6219C30.2182 79.9442 29.2348 80.2077 28.2681 80.5213C27.1635 80.8795 26.0686 81.2669 24.9682 81.6377C24.1279 81.9206 23.2836 82.1928 22.4433 82.4765C21.5872 82.7656 20.7405 83.0848 19.8774 83.3522C18.6422 83.7347 17.4025 84.1047 16.153 84.4374C14.966 84.7537 13.7704 85.0823 12.5401 85.1427C11.4776 85.1954 10.4049 85.1673 9.34389 85.0829C8.80846 85.0405 8.27475 84.8315 7.76595 84.6319C6.89078 84.2886 6.32623 83.6189 5.95496 82.6906C6.12135 82.5612 6.29256 82.3948 6.49314 82.2778C7.63805 81.6102 8.77814 80.9318 9.94426 80.303C10.6397 79.9279 11.3804 79.6363 12.101 79.3085C12.498 79.1282 12.9074 78.9715 13.2917 78.768C14.6102 78.0696 16.0197 77.5857 17.3946 77.0203C18.9792 76.3694 20.5796 75.7557 22.1539 75.0812C23.1918 74.6366 24.1918 74.1042 25.2167 73.6281C25.9776 73.2743 26.7468 72.9364 27.5199 72.6107C29.0236 71.9779 30.5128 71.3034 32.0453 70.7501C33.3653 70.2735 34.738 69.942 36.087 69.5458C36.2366 69.5019 36.3848 69.4529 36.6373 69.3743C36.1184 69.1498 35.6715 69.1084 35.2396 69.1202C33.3227 69.1734 31.3891 69.3331 29.5112 69.7336C27.6241 70.135 25.8125 70.7756 24.0522 71.565C23.0951 71.9946 22.1266 72.3989 21.1659 72.8203C20.3538 73.1763 19.548 73.5462 18.7346 73.8985C18.4698 74.0135 18.1901 74.0939 17.9167 74.1895C16.2564 74.7697 14.6078 75.3867 12.9307 75.9136C12.057 76.1882 11.138 76.334 10.2303 76.481C9.36906 76.6207 8.49415 76.6713 7.62894 76.788C6.84225 76.8942 6.08287 76.7338 5.32221 76.5984C4.90223 76.5237 4.49548 76.3755 4 76.2369L4.93187 75.3407C5.4313 74.8601 5.94379 74.3921 6.42742 73.8962C7.4147 72.8847 8.55084 72.0577 9.69059 71.2353C10.3685 70.7463 11.0386 70.2433 11.7443 69.7971C12.8683 69.0866 14.0144 68.4106 15.1599 67.7352C16.0773 67.194 17.0028 66.6666 17.9337 66.1493C19.0101 65.551 20.0738 64.9304 21.2151 64.4519C22.0036 64.1213 22.7533 63.6985 23.5382 63.3579C24.721 62.8449 25.9159 62.3594 27.1122 61.8783C28.1141 61.475 29.1099 61.048 30.1361 60.7162C31.5316 60.2652 32.9462 59.8684 34.3659 59.4994C35.3157 59.2525 36.2891 59.0953 37.2515 58.8953C38.3252 58.6721 39.3962 58.4325 40.4732 58.2272C40.9465 58.1371 41.4323 58.1128 41.9123 58.0599C43.2109 57.9165 44.5076 57.7529 45.8086 57.6364C47.4675 57.4879 49.1297 57.4078 50.7967 57.4855C51.2476 57.5064 51.7018 57.4529 52.1534 57.4652C52.7334 57.4812 53.3123 57.5396 53.892 57.5606C54.3908 57.5786 54.8908 57.5702 55.3902 57.5735C55.4387 57.5735 55.4875 57.5684 55.5351 57.5741C56.4615 57.6887 57.3869 57.8091 58.314 57.9186C58.9868 57.9982 59.6638 58.0435 60.3341 58.1395C62.0287 58.382 63.7184 58.6554 65.364 59.1472C66.2141 59.401 67.071 59.633 67.918 59.8953C68.3017 60.0141 68.6726 60.1753 69.0439 60.3305C70.1006 60.773 71.1764 61.1729 72.1531 61.789C72.8753 62.2448 73.6247 62.6574 74.3429 63.119C74.7986 63.4124 75.2187 63.7608 75.6242 64.1643C75.3951 64.1256 75.1647 64.0932 74.9375 64.0466C73.7802 63.8098 72.6198 63.5853 71.4673 63.3261C69.9381 62.9819 68.4208 62.5857 66.8883 62.2575C65.7674 62.0177 64.6312 61.8458 63.5003 61.6529C62.4011 61.4653 61.3023 61.2727 60.1989 61.1124C58.2637 60.8314 56.3279 60.551 54.3868 60.3148C53.3283 60.186 52.2592 60.1409 51.1934 60.0728C50.4851 60.0278 49.7733 60.0274 49.0657 59.9745C47.5641 59.8617 46.0643 59.9112 44.564 59.9854C42.4966 60.0882 40.4277 60.1636 38.3628 60.2984C37.6591 60.3444 36.9621 60.5217 36.2679 60.6653C35.4156 60.8413 34.5589 61.0092 33.7226 61.2452C32.248 61.6607 30.7849 62.1178 29.3215 62.5724C27.7945 63.0464 26.2975 63.5944 24.834 64.239C23.8149 64.6872 22.8081 65.163 21.8005 65.637C21.3484 65.8493 20.9044 66.081 20.4608 66.3112C19.0568 67.0389 17.6518 67.7646 16.2536 68.5032C15.7976 68.7445 15.3594 69.0204 14.9163 69.2856C14.3772 69.6087 13.8244 69.9123 13.3071 70.2674C12.057 71.1258 10.8127 71.993 9.59 72.8892C9.05904 73.2782 8.58117 73.741 8.0923 74.1844C7.95837 74.306 7.8711 74.4796 7.70986 74.7019C7.97779 74.7231 8.14933 74.7548 8.31873 74.7467C9.40119 74.6956 10.4858 74.6626 11.5652 74.5721C13.135 74.4408 14.6475 74.0247 16.1576 73.5949C17.9325 73.0898 19.6189 72.3508 21.3381 71.699C22.9682 71.0811 24.5849 70.428 26.2068 69.7887C26.8202 69.547 27.4272 69.2886 28.0457 69.0621C28.3608 68.9465 28.6951 68.883 29.0208 68.7978C29.939 68.5579 30.8476 68.266 31.7779 68.0909C33.6347 67.7412 35.4896 67.3822 37.3827 67.2415C39.148 67.11 40.9105 67.2001 42.6739 67.1784C42.9093 67.1756 43.1455 67.2343 43.4688 67.2758C43.1681 67.5967 42.9475 67.8961 42.6663 68.1199C42.0123 68.6414 41.3614 69.1783 40.6508 69.6141C39.4007 70.3812 38.0722 71.0031 36.6642 71.4359C35.2178 71.8805 33.7656 72.3052 32.3192 72.7501C31.4401 73.0205 30.5646 73.3039 29.6924 73.5964C28.0284 74.1551 26.3658 74.7194 24.7061 75.2914C23.2982 75.7769 21.9744 76.4535 20.6335 77.0926C19.1752 77.7876 17.7158 78.4809 16.2373 79.1309C15.4409 79.4815 14.6039 79.7401 13.785 80.0396C12.4519 80.5277 11.084 80.9303 9.83972 81.6359C9.50393 81.8262 9.17784 82.0334 8.77384 82.2775C8.9569 82.4181 9.07725 82.5427 9.22363 82.6175C9.8703 82.9487 10.5491 83.1822 11.2746 83.2814C12.6423 83.4686 14.0175 83.5015 15.383 83.351C16.586 83.2182 17.7922 83.0303 18.9671 82.7445C20.9284 82.2678 22.8866 81.7654 24.7779 81.041C26.5735 80.3532 28.3763 79.6847 30.177 79.0109C32.2637 78.2295 34.342 77.4223 36.4909 76.8213C37.9224 76.4212 39.3519 76.0086 40.7968 75.6616C41.9427 75.3864 43.0942 75.1078 44.2807 75.0537C44.5703 75.0407 44.8607 75.0516 45.1764 75.0516C45.1573 75.299 44.9585 75.4105 44.8034 75.52C44.1837 75.9587 43.5773 76.4284 42.9118 76.7874C41.9602 77.3013 40.9723 77.7522 39.9807 78.1866C38.0552 79.0299 36.1151 79.8399 34.1832 80.6692C32.8789 81.2291 31.5762 81.792 30.2785 82.3661C29.5709 82.6791 28.8778 83.0237 28.1738 83.3449C27.2384 83.7719 26.2946 84.1809 25.3631 84.6165C24.9552 84.807 24.5734 85.052 24.1724 85.2583C23.1693 85.7743 22.1678 86.2927 21.1556 86.7903C20.232 87.244 19.2823 87.6466 18.3677 88.1178C17.3507 88.6423 16.3591 89.2163 15.3602 89.7756C15.236 89.8455 15.1317 89.9541 15.0248 90.0521C14.9696 90.1023 14.929 90.1686 14.8217 90.3028C15.0609 90.3303 15.2263 90.3615 15.3927 90.3664C16.5294 90.3999 17.6516 90.2369 18.7743 90.095C20.7083 89.8504 22.5827 89.3492 24.4104 88.6907C26.3977 87.975 28.3541 87.1747 30.3403 86.4551C31.8595 85.9049 33.3926 85.3872 34.9393 84.9198C37.2564 84.2199 39.6219 83.7076 42.0178 83.3645C43.3606 83.1722 44.7176 83.0766 46.0695 82.9544C46.7905 82.8891 47.5144 82.8598 48.2799 82.8117C48.1427 83.1661 47.9378 83.3975 47.6765 83.589C46.7068 84.3001 45.6495 84.8342 44.5116 85.2284C43.5039 85.5771 42.5169 85.9821 41.5166 86.352C40.4401 86.7495 39.3516 87.116 38.281 87.5289C34.759 88.887 31.3352 90.4541 28.0981 92.4047C26.6986 93.2477 25.3083 94.1079 24.0716 95.1871C23.8927 95.3431 23.7294 95.5174 23.5464 95.6949C23.7731 95.9133 24.0125 95.8715 24.2158 95.8162C24.8537 95.6429 25.491 95.4602 26.1131 95.2384C27.2393 94.8377 28.3545 94.4082 29.473 93.9866C30.9264 93.4388 32.4107 92.9939 33.9172 92.6146C36.1763 92.0456 38.4504 91.5529 40.7729 91.3351C42.0908 91.2115 43.4112 91.0765 44.7409 91.1334C45.791 91.1785 46.8431 91.1779 47.8917 91.2399C48.9879 91.3043 50.0827 91.3848 51.1679 91.581C52.8219 91.8799 54.485 92.1252 56.139 92.4216C58.5885 92.8605 61.0335 93.3248 63.4802 93.7764C66.0077 94.243 68.5405 94.6799 71.0606 95.1822C72.8346 95.5358 74.5901 95.9822 76.3557 96.3785C77.5997 96.6577 78.8494 96.9111 80.0919 97.1972C81.3035 97.4764 82.5084 97.784 83.7179 98.0753C84.3924 98.2376 85.7304 98.6104 86.2777 98.6869C86.8701 98.7668 87.4622 98.8478 88.0553 98.9216C89.4657 99.097 90.8755 99.2785 92.2873 99.437C92.9128 99.5075 93.545 99.519 94.1728 99.5741C94.7038 99.6209 95.2314 99.7192 95.763 99.7468C97.2146 99.8214 98.667 99.8971 100.12 99.9237C102.142 99.9606 104.163 100.031 106.185 99.8553C107.782 99.7165 109.368 99.496 110.937 99.1905C112.411 98.9034 113.865 98.5154 115.325 98.1594C115.693 98.0689 119.79 96.6314 120.211 96.4955L119.836 96.0769L119.839 96.0735L120.211 96.4955C128.452 93.4204 136.489 89.9574 144.497 86.3947C144.264 84.5 143.998 82.6664 143.824 80.8242C143.649 78.9755 143.52 77.1198 143.454 75.2642C143.386 73.3923 143.382 71.5154 143.42 69.6426C143.459 67.7866 143.534 65.9279 143.689 64.0784C143.845 62.2342 144.12 60.4004 144.348 58.5133C143.962 58.6978 143.584 58.8666 143.217 59.0559C140.729 60.3396 138.183 61.499 135.608 62.595C134.864 62.9118 134.138 63.2711 133.383 63.5587C131.707 64.1972 130.04 64.8675 128.331 65.4071C125.45 66.3181 122.547 67.1645 119.638 67.9859C118.005 68.4469 116.342 68.8016 114.694 69.2085C114.302 69.305 113.915 69.4193 113.513 69.5288C113.45 69.8495 113.396 70.164 113.326 70.4743C112.973 72.0414 112.166 73.3814 111.121 74.564C110.468 75.3035 109.604 75.8171 108.727 76.2778C107.867 76.7294 106.974 77.1101 106.031 77.3515C104.806 77.6649 103.563 77.8264 102.293 77.8207C101.095 77.8158 99.898 77.7971 98.711 77.6358C98.0406 77.5445 97.3697 77.4117 96.7193 77.2266C93.9032 76.4253 91.2391 75.2747 88.7981 73.6457C87.4132 72.7214 86.0777 71.7335 84.8391 70.6117C84.0031 69.854 83.0912 69.1798 82.2211 68.459C81.4632 67.8311 80.7171 67.1886 79.9632 66.5553C79.7162 66.3475 79.457 66.1536 79.2107 65.9449C78.8167 65.6116 78.4386 65.2592 78.0358 64.9371C77.6079 64.5944 77.16 64.2765 76.7187 63.9501C76.1254 63.5106 75.5454 63.0515 74.9335 62.6401C73.4862 61.6668 72.0176 60.7261 70.3982 60.0528C69.7575 59.7864 69.1238 59.4921 68.4633 59.2882C67.2299 58.908 65.9858 58.5584 64.7342 58.2453C63.6218 57.967 62.4945 57.7471 61.3705 57.5173C60.4207 57.3231 59.4601 57.1794 58.5161 56.9619C57.6515 56.7623 56.7903 56.5319 55.9502 56.2478C54.6817 55.8186 53.5102 55.2134 52.6255 54.1593C51.6261 52.9681 51.5349 51.2946 52.4455 50.0342C52.8692 49.4478 53.3486 48.9012 53.8174 48.3184C54.0562 48.4738 54.2471 48.5884 54.4278 48.7173C55.4693 49.4589 56.6733 49.8531 57.8482 50.3073C58.8946 50.7124 59.9892 50.9129 61.0968 51.0738C62.2863 51.2465 63.4821 51.3052 64.6764 51.272C65.627 51.245 66.5756 51.1047 67.5223 50.9907C68.5966 50.8609 69.6681 50.7054 70.7406 50.5591C71.1082 50.5085 71.4746 50.4483 71.8425 50.399C72.6262 50.2938 73.4089 50.1818 74.1944 50.0932C74.965 50.0061 75.7372 49.9121 76.5112 49.8782C78.2564 49.8016 80.0031 49.7169 81.749 49.7175C83.2845 49.7181 84.8251 49.7732 86.354 49.9096C87.6544 50.0258 88.9581 50.2184 90.2297 50.5094C92.4634 51.0209 94.7008 51.5185 96.876 52.2749C100.002 53.362 102.847 54.9333 105.345 57.0814C106.53 58.1001 107.59 59.2722 108.64 60.4355C109.471 61.3568 110.241 62.3413 110.963 63.3509C111.87 64.6183 112.499 66.0392 113.024 67.5038C113.067 67.6254 113.11 67.747 113.159 67.8668C113.177 67.9095 113.211 67.9457 113.246 67.9986C113.951 67.8329 114.654 67.6654 115.358 67.5026C116.522 67.2337 117.689 66.9769 118.85 66.6971C119.446 66.5534 120.03 66.3614 120.623 66.2077C121.576 65.961 122.534 65.728 123.489 65.4885C125.495 64.9854 127.476 64.3981 129.452 63.7871C131.232 63.2363 132.943 62.5125 134.669 61.825C135.901 61.3347 137.119 60.8102 138.332 60.2739C139.424 59.7909 140.513 59.2951 141.581 58.7622C143.387 57.8611 145.175 56.9263 146.995 55.9928C146.985 56.0766 146.988 56.1789 146.959 56.2717C146.54 57.6509 146.297 59.0638 146.139 60.4932C146.009 61.6647 145.882 62.8365 145.759 64.0085C145.739 64.2008 145.743 64.396 145.74 64.5896C145.701 66.8027 145.633 69.0158 145.633 71.2287C145.634 72.6164 145.737 74.0041 145.795 75.3921C145.846 76.6186 145.88 77.846 145.955 79.0713C146.022 80.1491 146.099 81.2289 146.237 82.2993C146.423 83.7381 146.672 85.1694 146.894 86.6036C146.904 86.6675 146.907 86.7352 146.932 86.7933C147.089 87.1611 146.963 87.3953 146.668 87.6647C146.148 88.1396 145.697 88.6901 145.179 89.2508L144.848 87.5159C137.219 91.2014 129.464 94.4428 121.672 97.6631C120.851 97.8088 118.666 98.8166 117.382 99.1821C115.968 99.5837 114.558 100.01 113.13 100.359C111.011 100.876 108.881 101.349 106.749 101.812C105.914 101.993 105.064 102.107 104.219 102.234C103.646 102.32 103.07 102.385 102.493 102.441C101.869 102.501 101.242 102.537 100.617 102.588C95.9037 102.971 89.8392 102.088 80.4204 100.208ZM56.0736 53.081C56.1375 53.1197 56.1997 53.1633 56.2663 53.1974C57.1348 53.6408 58.053 53.9576 58.9991 54.1747C59.9744 54.3979 60.9638 54.5588 61.9453 54.7542C62.9566 54.9554 63.9715 55.1411 64.9746 55.3767C66.2007 55.6646 67.4174 55.9928 68.6363 56.3125C70.1063 56.6978 71.5398 57.1921 72.9156 57.8382C73.7465 58.2284 74.5677 58.6409 75.3768 59.0744C76.3287 59.5843 77.2828 60.0958 78.1982 60.6671C78.8383 61.0664 79.4185 61.5615 80.018 62.0237C80.5386 62.426 81.0595 62.8288 81.5602 63.2548C82.4069 63.9755 83.2378 64.7153 84.0757 65.4464C85.8387 66.9836 87.6028 68.5216 89.3775 70.0451C90.3642 70.8923 91.4779 71.5565 92.614 72.173C93.6335 72.7259 94.6917 73.2102 95.7463 73.695C96.1842 73.8964 96.6554 74.0283 97.116 74.1781C98.7501 74.7089 100.419 75.1027 102.135 75.2076C103.525 75.2927 104.919 75.2418 106.296 75.0038C107.285 74.8326 108.267 74.6142 109.15 74.1096C109.664 73.8156 110.085 73.4089 110.307 72.8487C110.602 72.101 110.705 71.31 110.612 70.5182C110.442 69.0721 109.929 67.7337 109.185 66.4854C108.356 65.0974 107.454 63.7674 106.381 62.5451C105.644 61.7064 104.925 60.8541 104.108 60.094C102.543 58.6373 100.874 57.3454 98.8934 56.4535C96.8066 55.5141 94.6562 54.782 92.4661 54.1514C90.696 53.6424 88.8848 53.3269 87.0623 53.0613C85.6183 52.8505 84.17 52.7582 82.7163 52.7274C79.5623 52.66 76.4078 52.6013 73.2534 52.5683C72.1561 52.5568 71.0576 52.6242 69.9605 52.669C68.7981 52.7165 67.6468 52.9406 66.4771 52.8883C66.1707 52.8744 65.8628 52.9125 65.5552 52.9174C64.0358 52.9398 62.5126 53.035 60.998 52.9588C59.3616 52.8768 57.7348 52.8956 56.0736 53.081Z" fill="#0047BA"/>
</svg>
