<svg width="30" height="30" viewBox="0 0 30 30" fill="none" xmlns="http://www.w3.org/2000/svg">
<g clip-path="url(#clip0_4350_2142)">
<path fill-rule="evenodd" clip-rule="evenodd" d="M9.37481 4.5C10.5584 4.49919 11.7248 4.78357 12.7752 5.32908C13.6272 5.77157 14.3826 6.3753 15.0004 7.10455C16.3524 5.51184 18.3709 4.5 20.625 4.5C24.698 4.5 28 7.80198 28 11.875C28 15.5046 25.8633 18.9059 23.2459 21.5492C20.6237 24.1973 17.4336 26.172 15.1577 26.9282C15.0553 26.9623 14.9447 26.9623 14.8423 26.9282C12.5664 26.172 9.37631 24.1973 6.75409 21.5492C4.13673 18.9059 2 15.5046 2 11.875C2 7.8021 5.30179 4.50019 9.37465 4.5M12.3143 6.21654C11.4064 5.74506 10.3983 5.49928 9.37535 5.5L9.375 5.5C5.85427 5.5 3 8.35427 3 11.875C3 15.1204 4.92577 18.2816 7.46466 20.8455C9.93595 23.3412 12.9074 25.1884 15 25.9253C17.0926 25.1884 20.0641 23.3412 22.5353 20.8455C25.0742 18.2816 27 15.1204 27 11.875C27 8.35427 24.1457 5.5 20.625 5.5C18.4695 5.5 16.5629 6.56958 15.4089 8.20906C15.3151 8.34219 15.1625 8.42135 14.9997 8.42125C14.8369 8.42115 14.6843 8.34179 14.5908 8.20855C14.003 7.3713 13.2221 6.68801 12.3143 6.21654Z" fill="#313235"/>
</g>
<defs>
<clipPath id="clip0_4350_2142">
<rect width="30" height="30" fill="white"/>
</clipPath>
</defs>
</svg>
