<svg width="152" height="152" viewBox="0 0 152 152" fill="none" xmlns="http://www.w3.org/2000/svg">
<path fill-rule="evenodd" clip-rule="evenodd" d="M85.8762 55.6226C86.5707 54.4788 87.2816 53.3431 88.0205 52.2274C88.7349 51.1491 89.5135 50.1134 90.2288 49.0358C91.673 46.8599 93.3552 44.8809 95.1482 42.9905C95.9362 42.1606 96.8596 41.492 97.764 40.8018C99.5339 39.4525 101.462 38.3776 103.501 37.4936C115.042 32.4923 117.896 44.5539 114.886 52.5815C114.321 54.0873 113.587 55.5172 112.852 56.9454C111.429 59.7191 108.634 63.632 107.756 65.7058L106.867 67.1313C106.333 67.9908 105.823 68.8646 105.301 69.7319C103.873 72.1094 102.444 74.4861 101.037 76.8769C98.3509 81.4403 95.7242 86.0369 93.0749 90.6215C90.705 94.7212 89.7836 95.813 89.5555 96.191C89.5074 96.2707 89.47 96.3573 89.4174 96.4339C88.7565 97.3937 88.0678 98.3356 87.4383 99.3156C86.7473 100.392 86.1191 101.507 85.4482 102.596C84.85 103.568 84.2238 104.522 83.6224 105.491C82.8119 106.799 82.0164 108.117 81.208 109.425C80.8072 110.075 80.3801 110.708 79.9854 111.361C79.1714 112.708 78.3581 114.056 77.5689 115.418C76.9057 116.564 76.2771 117.729 75.6319 118.884C75.6106 118.922 75.5747 118.952 75.5063 119.03C75.3773 118.917 75.2515 118.813 75.1339 118.701C73.8134 117.437 72.6518 116.028 71.4732 114.638C70.5571 113.557 69.6809 112.443 68.8016 111.333C67.7474 110.002 66.6944 108.669 65.6673 107.317C64.64 105.964 63.6293 104.597 62.641 103.215C61.6808 101.872 60.7578 100.503 59.8188 99.1448C59.1658 98.2009 58.515 97.2556 57.8599 96.3129C57.1143 95.2401 56.3591 94.1739 55.6204 93.0963C55.2065 92.4926 54.8173 91.8722 54.4173 91.2592C53.7123 90.1781 52.9965 89.1043 52.3072 88.0133C51.8334 87.2639 51.403 86.4873 50.9415 85.7298C50.3505 84.7606 49.7375 83.8041 49.1533 82.8305C48.6658 82.018 48.2027 81.1909 47.736 80.3665C47.5134 79.9738 47.2971 79.5773 47.0957 79.1736C46.694 78.3681 46.3028 77.5577 45.9113 76.747C45.4579 75.8098 45.0007 74.8742 44.5602 73.9309C44.1138 72.9763 43.6823 72.0143 43.2502 71.053C42.9259 70.331 42.598 69.6102 42.2941 68.8797C42.0144 68.2065 41.7681 67.5199 41.5015 66.8411C41.2633 66.2344 41.0028 65.636 40.779 65.0237C40.496 64.2504 40.24 63.4668 39.9729 62.6873C39.6959 61.878 39.4109 61.0712 39.145 60.2581C38.947 59.6535 38.7655 59.0433 38.5918 58.4311C38.359 57.6108 38.108 56.7927 37.9255 55.9604C37.6992 54.929 37.5395 53.8835 37.3431 52.8454C36.9805 50.9308 37.0158 48.997 37.0801 47.0649C37.1358 45.3883 37.4029 43.7367 38.1138 42.2067C39.0743 40.1385 40.3647 38.2987 42.083 36.7698C43.3043 35.6829 44.63 34.7651 46.1244 34.1035C47.714 33.3997 49.3504 32.852 51.107 32.7612C51.5727 32.737 52.0403 32.6973 52.5051 32.7156C53.8574 32.7697 55.0278 33.3164 56.1365 34.058C57.1009 34.7023 57.9817 35.4386 58.8251 36.2298C59.7412 37.0883 60.4932 38.0824 61.2441 39.0791C62.6452 40.9385 63.8112 42.9439 64.9156 44.9889C65.9006 46.8129 66.9104 48.6236 67.8952 50.4476C68.479 51.5301 69.0477 52.6214 69.6016 53.7198C70.4006 55.3047 71.2008 56.8896 71.961 58.4933C72.5542 59.7449 73.0871 61.0253 73.6476 62.2921C73.8555 62.762 74.0703 63.2294 74.2767 63.7004C75.0322 65.4266 75.7878 67.1532 76.5387 68.882C76.7121 69.282 76.8572 69.6945 77.0335 70.0933C77.0843 70.2089 77.1929 70.3681 77.2863 70.3762C77.3815 70.3847 77.5252 70.2519 77.5888 70.1459C78.1496 69.2122 78.6903 68.2667 79.2505 67.3321C81.5715 63.4626 83.5804 59.4018 85.8762 55.6226ZM76.2552 72.8203C75.4767 71.538 74.7088 70.2099 73.9871 68.8047C73.3405 67.5453 72.7218 66.2712 72.0938 65.0019C71.707 64.22 71.3415 63.4274 70.9387 62.6546C70.0754 60.9982 69.1835 59.3566 68.3231 57.6987C67.6919 56.4824 67.0879 55.2524 66.4789 54.0246C64.8624 50.7641 62.9467 47.6812 60.8777 44.6949C59.6904 42.9809 58.4777 41.2816 57.0667 39.7345C56.319 38.915 55.522 38.1441 54.6421 37.4801C53.0858 36.3056 51.375 35.4293 49.4277 35.0783C48.5755 34.9245 47.7217 34.8938 46.8788 35.076C46.2423 35.2135 45.6124 35.4024 45.0016 35.6284C44.5088 35.8105 44.0119 36.0289 43.5821 36.3258C42.6033 37.0014 41.8638 37.9108 41.3246 38.9664C40.3784 40.8191 40.0137 42.8271 39.8976 44.8754C39.8193 46.2565 39.7966 47.65 40.0406 49.0242C40.2581 50.2477 40.4321 51.4858 40.7536 52.683C41.1885 54.3034 41.7572 55.8871 42.2489 57.4928C42.7913 59.264 43.4558 60.9894 44.1529 62.7028C44.5687 63.7252 45.0016 64.7409 45.4214 65.7615C45.9302 66.9979 46.4143 68.2447 46.9453 69.4721C47.5187 70.7978 48.121 72.1118 48.7347 73.4194C49.5726 75.2052 50.4212 76.9864 51.288 78.7581C51.8953 79.9996 52.5387 81.2228 53.1681 82.4527C53.3596 82.827 53.5488 83.2024 53.7563 83.5671C53.9546 83.916 54.1885 84.2449 54.3832 84.5955C54.857 85.4487 55.2794 86.3327 55.7915 87.1614C56.6075 88.484 57.4848 89.7685 58.3264 91.0752C59.0855 92.2535 59.8291 93.4414 60.5832 94.6229C61.6554 96.3039 62.6928 98.0048 63.8967 99.602C65.1252 101.232 66.248 102.941 67.4511 104.59C68.3871 105.874 69.2781 107.19 70.3159 108.401C72.0401 110.413 73.673 112.502 75.4757 114.447C75.7364 114.729 76.0246 114.985 76.3156 115.268C76.412 115.145 76.4896 115.066 76.5428 114.974C83.5191 102.913 91.1225 91.211 98.1757 79.1716C99.1855 77.4526 100.218 75.7462 101.253 74.0418C102.158 72.5503 103.081 71.0696 103.995 69.5827C104.058 69.4804 111.637 55.7478 112.269 53.6709C113.026 51.1803 113 48.7218 112.595 46.1731C112.309 44.375 111.695 42.7115 110.627 41.2258C109.366 39.472 107.642 38.6312 105.499 38.6748C105.024 38.6847 104.55 38.8409 104.081 38.9527C101.764 39.5048 99.6141 40.4328 97.7109 41.878C96.5338 42.7719 95.3223 43.6299 94.4117 44.8292C94.0325 45.3285 77.7269 70.6185 76.2552 72.8203Z" fill="#0047BA"/>
</svg>
