<svg width="300" height="80" viewBox="0 0 300 80" fill="none" xmlns="http://www.w3.org/2000/svg">
<g clip-path="url(#clip0_4350_2118)">
<path d="M52.9929 56.3013C40.9975 56.3013 37.0859 49.0654 37.0859 44.009H45.8652C45.8652 45.3167 48.0382 48.1065 54.1229 48.1065C58.6429 48.1065 59.6859 46.2757 59.6859 45.2295C59.6859 40.1731 37.2598 43.2244 37.2598 32.4142C37.2598 27.5321 41.6929 23.0859 52.2975 23.0859C64.7275 23.0859 67.9436 29.45 67.9436 33.3731H59.1644C59.1644 31.5423 56.6436 29.9731 51.689 29.9731C48.8205 29.9731 46.039 30.5834 46.039 32.2398C46.039 36.0757 68.639 32.0654 68.639 44.7065C68.639 50.5475 63.7713 56.3013 52.9929 56.3013Z" fill="#0047BA"/>
<path d="M106.111 31.4024V23.9922H73.6016V31.4024H106.111Z" fill="#0047BA"/>
<path d="M106.111 56.2618V48.8516H73.6016V56.2618H106.111Z" fill="#0047BA"/>
<path d="M106.111 43.4103V36H73.6016V43.4103H106.111Z" fill="#0047BA"/>
<path d="M133.573 23.0859C139.832 23.0859 144.7 26.7475 144.7 33.809V56.3013H136.007V40.086C136.007 34.4193 134.008 31.8911 129.749 31.8911C125.229 31.8911 121.317 34.4193 121.317 40.086V56.3013H112.625V24.0449H121.317V25.9628C120.796 27.5321 118.97 33.0244 118.97 33.0244H120.622C121.578 30.409 122.273 27.2705 124.447 25.6141C126.88 23.6962 129.662 23.0859 133.573 23.0859Z" fill="#0047BA"/>
<path d="M149.477 39.4757C149.477 30.1475 157.213 23.0859 168.165 23.0859C179.552 23.0859 186.506 30.7577 186.419 39.4757C186.419 40.1731 186.506 41.6552 186.419 42.1783H160.168C160.168 45.2295 162.95 48.9783 168.86 48.9783C172.685 48.9783 175.032 47.5834 175.64 46.3629H185.637C184.68 49.5885 179.9 56.3013 169.643 56.3013C156.604 56.3013 149.477 48.8039 149.477 39.4757ZM176.162 36.686C176.162 32.6757 173.207 29.7116 168.426 29.7116C163.558 29.7116 160.168 33.0244 160.168 36.686H176.162Z" fill="#0047BA"/>
<path d="M207.106 23.0859C217.798 23.0859 223.622 29.3629 224.23 36.0757H214.842C214.842 36.0757 213.017 31.2808 206.845 31.2808C202.065 31.2808 198.762 34.1578 198.762 39.3885C198.675 44.5321 201.978 47.9321 207.019 47.9321C213.017 48.0193 215.103 43.1372 215.103 43.1372H224.491C223.448 50.1988 217.537 56.2142 207.367 56.2142C196.849 56.2142 190.156 49.8501 190.156 39.3885C190.156 29.0141 196.849 23.0859 207.106 23.0859Z" fill="#0047BA"/>
<path d="M242.835 56.3013C233.708 56.3013 227.102 48.8039 227.102 39.4757C227.102 30.1475 233.621 23.0859 242.835 23.0859C246.92 23.0859 250.136 24.4808 252.396 26.9218C253.7 28.3167 254.135 31.1936 254.656 32.9372H256.221C256.221 32.9372 254.482 26.8347 254.222 25.8757V23.9577H262.914V56.2142H254.222V47.6706C253.265 52.4654 250.484 56.3013 242.835 56.3013ZM243.443 48.1937C247.789 48.1937 251.092 44.1834 251.179 39.4757C251.179 34.6808 248.485 31.1936 243.443 31.1936C239.097 31.1936 235.794 34.6808 235.794 39.4757C235.881 44.1834 239.097 48.1937 243.443 48.1937Z" fill="#0047BA"/>
</g>
<defs>
<clipPath id="clip0_4350_2118">
<rect width="226" height="34" fill="white" transform="translate(37 23)"/>
</clipPath>
</defs>
</svg>
